<svg xmlns="http://www.w3.org/2000/svg" width="117" height="19.527" viewBox="0 0 117 19.527">
  <g id="logo" transform="translate(0 0.017)">
    <path id="Tracé_8" data-name="Tracé 8" d="M977.613,143h.105v.957h-.105A.7.7,0,0,1,977.613,143Z" transform="translate(-860.719 -129.867)" fill="#f6f6f6"/>
    <path id="Tracé_9" data-name="Tracé 9" d="M603.646,42.788a13.237,13.237,0,0,1-1.235,6.1,6.973,6.973,0,0,1-6.641,3.757,6.883,6.883,0,0,1-6.812-5.422,15.094,15.094,0,0,1,.287-9.588c1.287-3.414,4.371-4.855,7.8-4.45,3.375.4,5.642,2.9,6.3,6.343A16.246,16.246,0,0,1,603.646,42.788Z" transform="translate(-518.178 -33.14)"/>
    <path id="Tracé_10" data-name="Tracé 10" d="M216.1,55.745c-1.343-.081-2.633.139-3.927.127-.037-.293.157-.276.264-.32a1.41,1.41,0,0,0,.975-1.733,14.177,14.177,0,0,0-1.295-3.3c-.3-.646-.637-1.275-.918-1.927a.573.573,0,0,0-.632-.387c-1.934.016-3.868.007-5.8.01-.208,0-.409-.05-.547.227-.7,1.413-1.51,2.778-2.073,4.256a2.028,2.028,0,0,0,1.01,2.816c.12.069.293.107.239.281s-.239.087-.359.075a21.731,21.731,0,0,0-4.889,0c-.12.014-.3.092-.372-.077s.1-.226.217-.3a8.193,8.193,0,0,0,2.912-3.324c2.017-3.844,3.984-7.7,5.98-11.543a.735.735,0,0,0-.051-.816,5.121,5.121,0,0,0-4-2.475c-.126-.016-.286.05-.4-.239.718,0,1.387-.023,2.057,0,.838.036,1.665.12,2.5.166a.454.454,0,0,1,.448.3q4.283,8.962,8.577,17.92a2.722,2.722,0,0,1,.086.266Z" transform="translate(-174.362 -36.628)"/>
    <path id="Tracé_11" data-name="Tracé 11" d="M50.215,53.239,41.84,37.175c1.2-.079,2.34-.156,3.478-.226.089-.006.211-.041.239.1s-.085.168-.164.219c-.864.559-.968.8-.778,1.8a6.55,6.55,0,0,0,.63,1.783c1.619,3.127,3.26,6.243,4.879,9.335.219.037.227-.111.274-.208,1.382-2.889,2.772-5.775,4.137-8.672a5.615,5.615,0,0,0,.638-2.085,1.742,1.742,0,0,0-1.032-1.891c-.141-.062-.348-.1-.269-.309.06-.162.25-.079.371-.065a19.656,19.656,0,0,0,4.882,0c.12-.016.3-.105.339.11.024.138-.1.193-.217.239a6.139,6.139,0,0,0-2.907,3.261q-2.935,6.058-5.854,12.119C50.411,52.853,50.332,53,50.215,53.239Z" transform="translate(-37.105 -36.489)"/>
    <path id="Tracé_12" data-name="Tracé 12" d="M460.479,51.3a6.452,6.452,0,0,1-.464,1.85c-.239.771-.518,1.533-.74,2.31-.077.27-.213.288-.431.272-3.462-.278-6.931-.072-10.4-.12-.348,0-.42-.11-.419-.437q.014-8.785,0-17.57c0-.359.074-.466.451-.479,1.014-.025,2.025-.114,3.038-.169.145-.008.309-.055.433.05.02.229-.159.248-.27.282a3.081,3.081,0,0,0-2.108,2.824,14.912,14.912,0,0,0-.108,2.322c0,2.73-.011,5.459.022,8.187a16.526,16.526,0,0,0,.333,3.016.715.715,0,0,0,.764.668,35.254,35.254,0,0,0,5.84-.111,4.688,4.688,0,0,0,3.511-2.385C460.049,51.629,460.089,51.344,460.479,51.3Z" transform="translate(-394.682 -36.504)"/>
    <path id="Tracé_13" data-name="Tracé 13" d="M889.573,48.428v.957a4.211,4.211,0,0,1-.943,2.167c-.134.02-.213-.013-.168-.17a6.883,6.883,0,0,0,.092-2.252,5.2,5.2,0,0,0-3.133-3.922c-1.556-.747-3.24-1.151-4.827-1.813-.437-.183-.855-.413-1.3-.582-2.528-.957-2.267-4.6-.645-5.883a6.317,6.317,0,0,1,3.339-1.279,17.822,17.822,0,0,1,6.143.534c.251.061.359.133.359.414.018,1.291.069,2.583.095,3.875,0,.166.126.463-.2.452-.267-.007-.15-.284-.169-.433a3.638,3.638,0,0,0-2.872-3.112,6.57,6.57,0,0,0-5.305.272,2.1,2.1,0,0,0-1.252,2.494,2.476,2.476,0,0,0,1.382,1.556,28.464,28.464,0,0,0,3.949,1.6c.741.27,1.486.537,2.208.855A5.067,5.067,0,0,1,889.573,48.428Z" transform="translate(-772.679 -35.295)"/>
    <path id="Tracé_14" data-name="Tracé 14" d="M861.963,66.56a5.171,5.171,0,0,0,.753,3.231,5.75,5.75,0,0,0,2.961,2.093A38.148,38.148,0,0,1,870.92,73.9a3.834,3.834,0,0,1,2.193,2.917,4.668,4.668,0,0,1-4.012,5.115,15.494,15.494,0,0,1-4.894-.419c-.528-.089-1.06-.147-1.589-.227-.213-.031-.444-.036-.433-.359.052-1.593-.267-3.172-.176-4.767a.963.963,0,0,1,.016-.239c.038-.12-.011-.3.188-.321.239-.023.239.175.255.322a5.1,5.1,0,0,0,3.386,4.372,4.546,4.546,0,0,0,4.7-.34,2.832,2.832,0,0,0-.274-4.851,36.166,36.166,0,0,0-4.907-1.915,16.211,16.211,0,0,1-1.691-.711A4.092,4.092,0,0,1,861.963,66.56Z" transform="translate(-758.518 -62.575)"/>
    <path id="Tracé_15" data-name="Tracé 15" d="M290.12,38.511a.544.544,0,0,1,.1-.041c1.452-.108,1.443-.1,2.019,1.209,1.971,4.484,4.069,8.91,6.355,13.243a8.483,8.483,0,0,0,3.657,3.874c.045.022.072.084.134.162a2.237,2.237,0,0,1-1.109.051,10.974,10.974,0,0,0-1.306-.077,1.333,1.333,0,0,1-1.531-.957c-2.711-5.775-5.491-11.514-8.248-17.265C290.168,38.659,290.154,38.6,290.12,38.511Z" transform="translate(-255.671 -37.811)"/>
    <path id="Tracé_16" data-name="Tracé 16" d="M810.782,37.19c-.187.168-.232.239-.3.26-1.624.486-2.117,1.774-2.188,3.255q-.284,5.876-.006,11.757a3.356,3.356,0,0,0,2.195,3.243c.077.029.152.051.13.2-.148.133-.359.051-.53.034a24.353,24.353,0,0,0-2.864-.12c-.323.006-.394-.1-.394-.406q.012-8.84.01-17.679c0-.157-.085-.371.218-.384C808.243,37.311,809.429,37.252,810.782,37.19Z" transform="translate(-710.539 -36.72)"/>
    <path id="Tracé_17" data-name="Tracé 17" d="M767.715,46.254c0,2.887-.008,5.775.01,8.662,0,.421-.062.577-.54.572-.974-.008-1.948.077-2.924.12-.105,0-.258.066-.278-.12-.013-.12.12-.15.2-.181,1.571-.553,1.951-1.871,2.056-3.307.263-3.619.092-7.244.1-10.867a7.3,7.3,0,0,0-.3-2.056,2.692,2.692,0,0,0-1.731-1.893c-.142-.051-.37-.054-.32-.263s.28-.1.409-.081a24.1,24.1,0,0,0,2.8.13c.427,0,.521.152.518.555C767.707,40.438,767.715,43.345,767.715,46.254Z" transform="translate(-672.821 -36.372)"/>
    <path id="Tracé_18" data-name="Tracé 18" d="M410.646,46.47c0,2.89-.008,5.779.01,8.668,0,.41-.089.549-.518.528a15.029,15.029,0,0,0-2.8.12c-.1.014-.255.072-.287-.1-.023-.12.093-.177.175-.213,1.581-.688,1.863-2.091,1.971-3.583.142-1.969.059-3.942.062-5.913,0-1.831.068-3.665-.054-5.495a3.217,3.217,0,0,0-1.942-3.134c-.108-.043-.247-.092-.2-.239s.2-.09.305-.085c.934.041,1.867.1,2.8.133.406.016.5.2.494.592C410.638,40.651,410.646,43.56,410.646,46.47Z" transform="translate(-358.603 -36.557)"/>
    <path id="Tracé_19" data-name="Tracé 19" d="M2.922,36.929c.718.037,1.436.08,2.147.107a.625.625,0,0,1,.6.377q4.428,8.472,8.872,16.935a2.078,2.078,0,0,1-.467,1.53c-.3.12-.32-.168-.4-.317-.826-1.556-1.637-3.119-2.458-4.677q-2.743-5.2-5.495-10.392a8.764,8.764,0,0,0-2.018-2.561,3.206,3.206,0,0,0-1.063-.635c-.156-.053-.428-.051-.369-.29.056-.218.306-.06.466-.095a.642.642,0,0,1,.178.006Z" transform="translate(-2.27 -36.453)"/>
    <path id="Tracé_20" data-name="Tracé 20" d="M566.25,69.86a7.945,7.945,0,0,1-2.774-5.953,9.541,9.541,0,0,1,1.629-6.649,7.838,7.838,0,0,1,1.077-1.111c.1-.087.211-.239.359-.141.17.12.011.255-.044.359a16.4,16.4,0,0,0-.1,13.2C566.436,69.711,566.488,69.86,566.25,69.86Z" transform="translate(-496.278 -53.256)"/>
    <path id="Tracé_21" data-name="Tracé 21" d="M716.051,70.738a17.633,17.633,0,0,0-.081-13.859c.219-.092.391.108.584.282A7.862,7.862,0,0,1,719,62.786a10.33,10.33,0,0,1-1.247,6.07A6.774,6.774,0,0,1,716.051,70.738Z" transform="translate(-630.555 -54.033)"/>
    <path id="Tracé_22" data-name="Tracé 22" d="M586.93,169.887c.12-.062.12-.178.15-.287l.411.68C587.205,170.127,587.035,170.052,586.93,169.887Z" transform="translate(-516.958 -153.284)" fill="#202020"/>
    <path id="Tracé_23" data-name="Tracé 23" d="M968.192,167.66l.168.17a.649.649,0,0,1-.379.359C968.064,167.982,968.033,167.792,968.192,167.66Z" transform="translate(-852.404 -151.576)" fill="#202020"/>
    <path id="Tracé_24" data-name="Tracé 24" d="M613.669,53.107a12.587,12.587,0,0,1-.675,4.768c-1.014,2.8-3.312,3.821-6.012,3.6a5.291,5.291,0,0,1-5.036-4.585,15.463,15.463,0,0,1,.351-8.449c.949-2.771,3.049-3.754,5.578-3.686,3.649.1,5.068,2.682,5.556,5.234A13.375,13.375,0,0,1,613.669,53.107Z" transform="translate(-529.807 -43.378)" fill="#fefefe"/>
    <path id="Tracé_25" data-name="Tracé 25" d="M264.424,79.426h-4.963c-.336,0-.43-.057-.25-.4.86-1.642,1.7-3.295,2.609-5.058Z" transform="translate(-228.381 -69.099)" fill="#fdfdfd"/>
  </g>
</svg>
