<svg xmlns="http://www.w3.org/2000/svg" width="28.994" height="34.094" viewBox="0 0 28.994 34.094">
  <g id="Calque_2" data-name="Calque 2" transform="translate(-0.003 34.091) rotate(-90)">
    <g id="Calque_1" data-name="Calque 1" transform="translate(-0.003 0.003)">
      <path id="Tracé_6" data-name="Tracé 6" d="M52.338,24.889c-4.275-8.205-8.493-16.3-12.768-24.5,1.83-.12,3.567-.235,5.3-.345.135-.009.319-.062.365.151s-.128.255-.248.334c-1.326.852-1.478,1.226-1.188,2.751A10.019,10.019,0,0,0,44.757,6c2.469,4.766,4.968,9.515,7.439,14.232.334.057.347-.168.418-.317,2.111-4.394,4.229-8.8,6.311-13.217a8.569,8.569,0,0,0,.973-3.18A2.655,2.655,0,0,0,58.325.634c-.215-.093-.531-.15-.411-.471.091-.244.381-.119.566-.1a29.88,29.88,0,0,0,7.443,0c.182-.024.462-.159.516.168.036.212-.159.3-.33.365-2.226.989-3.425,2.9-4.428,4.972Q57.2,14.8,52.753,24.044C52.638,24.29,52.517,24.527,52.338,24.889Z" transform="translate(-32.35 -0.013)" fill="#fff"/>
      <path id="Tracé_7" data-name="Tracé 7" d="M.992.066c1.095.057,2.19.124,3.273.162A.954.954,0,0,1,5.187.8q6.751,12.918,13.526,25.818A3.168,3.168,0,0,1,18,28.953c-.453.182-.487-.255-.608-.484-1.259-2.376-2.5-4.748-3.75-7.12Q9.465,13.415,5.267,5.5a13.374,13.374,0,0,0-3.08-3.9A4.883,4.883,0,0,0,.567.625C.335.55-.083.55.01.185.1-.151.478.092.727.037A1.14,1.14,0,0,1,1,.037Z" transform="translate(0.003 -0.003)" fill="#fff"/>
    </g>
  </g>
</svg>
