<svg xmlns="http://www.w3.org/2000/svg" width="117" height="99.498" viewBox="0 0 117 99.498">
  <g id="Calque_2" data-name="Calque 2" transform="translate(0.003 -0.003)">
    <g id="Calque_1" data-name="Calque 1" transform="translate(-0.003 0.003)">
      <path id="Tracé_6" data-name="Tracé 6" d="M83.388,85.374C68.717,57.217,54.241,29.434,39.57,1.3,45.85.882,51.811.488,57.766.112c.463-.031,1.1-.213,1.252.52s-.438.877-.852,1.146C53.614,4.7,53.095,5.985,54.09,11.22a34.382,34.382,0,0,0,3.281,9.336C65.843,36.911,74.421,53.209,82.9,69.4c1.146.194,1.19-.576,1.434-1.09C91.578,53.228,98.847,38.1,105.992,22.948c1.622-3.444,3.131-7,3.337-10.914.207-4.383-1.033-8-5.4-9.893-.739-.319-1.822-.513-1.409-1.615.313-.839,1.309-.407,1.941-.338A102.538,102.538,0,0,0,130,.181c.626-.081,1.584-.545,1.772.576.125.726-.545,1.014-1.133,1.252C123,5.4,118.89,11.971,115.446,19.072q-15.366,31.683-30.637,63.4C84.415,83.321,84,84.135,83.388,85.374Z" transform="translate(-14.792 -0.008)"/>
      <path id="Tracé_7" data-name="Tracé 7" d="M3.411.22c3.757.194,7.514.426,11.233.557A3.275,3.275,0,0,1,17.807,2.75q23.167,44.331,46.416,88.6c.726,1.384-1.083,7.432-2.442,8-1.553.626-1.672-.877-2.085-1.659C55.375,89.54,51.13,81.4,46.828,73.26Q32.49,46.029,18.082,18.854A45.9,45.9,0,0,0,7.513,5.455a16.756,16.756,0,0,0-5.56-3.319C1.157,1.88-.277,1.88.043.627.337-.525,1.646.308,2.5.12a3.913,3.913,0,0,1,.933,0Z" transform="translate(0.003 -0.003)"/>
    </g>
  </g>
</svg>
