<svg xmlns="http://www.w3.org/2000/svg" width="225" height="9.457" viewBox="0 0 225 9.457">
  <path id="Tracé_546" data-name="Tracé 546" d="M9.415,111.887c0-34.074-.049-68.15.041-102.218.018-6.831-.45-8.239-1.808-7.893A8.008,8.008,0,0,1,.947.465c-.3-.2-.779-1.369-.924,1A4.523,4.523,0,0,0,.583,4.335c3.892,8.051,4.731,23.988,5.021,41.1.41,24.248.18,48.559.18,72.839,0,20.945.141,41.895-.12,62.846C5.444,198.769,4.431,213.88.447,221.118a4.337,4.337,0,0,0-.431,2.55c.117,1.959.508,1.2.78,1.139,2.442-.5,4.882-1.148,7.324-1.622,1.011-.2,1.333-2.06,1.325-6.934Q9.361,164.07,9.415,111.887Z" transform="translate(225) rotate(90)" fill="#020e8a"/>
</svg>
