<svg xmlns="http://www.w3.org/2000/svg" width="225" height="9.457" viewBox="0 0 225 9.457">
  <path id="Tracé_547" data-name="Tracé 547" d="M9.415,113.113c0,34.074-.049,68.15.041,102.218.018,6.831-.45,8.239-1.808,7.893a8.008,8.008,0,0,0-6.7,1.312c-.3.2-.779,1.369-.924-1a4.523,4.523,0,0,1,.561-2.866c3.892-8.051,4.731-23.988,5.021-41.1.41-24.248.18-48.559.18-72.839,0-20.945.141-41.895-.12-62.846C5.444,26.231,4.431,11.12.447,3.882a4.337,4.337,0,0,1-.431-2.55C.133-.627.524.137.8.193c2.442.5,4.882,1.148,7.324,1.622,1.011.2,1.333,2.06,1.325,6.934Q9.361,60.93,9.415,113.113Z" transform="translate(0 9.457) rotate(-90)" fill="#020e8a"/>
</svg>
