<svg xmlns="http://www.w3.org/2000/svg" xmlns:xlink="http://www.w3.org/1999/xlink" width="64" height="50" viewBox="0 0 64 50">
  <defs>
    <clipPath id="clip-path">
      <rect id="Rectangle_27" data-name="Rectangle 27" width="64" height="50" transform="translate(706 324)" fill="#fff" stroke="#707070" stroke-width="1"/>
    </clipPath>
  </defs>
  <g id="Groupe_de_masques_2" data-name="Groupe de masques 2" transform="translate(-706 -324)" clip-path="url(#clip-path)">
    <g id="art" transform="translate(709.476 320.476)">
      <g id="Groupe_80" data-name="Groupe 80">
        <g id="Groupe_79" data-name="Groupe 79">
          <path id="Tracé_26" data-name="Tracé 26" d="M28.89,21.172a5.819,5.819,0,1,0,5.819,5.819A5.819,5.819,0,0,0,28.89,21.172Zm0,8.867a3.048,3.048,0,1,1,0-6.1h0a3.048,3.048,0,0,1,0,6.1Z"/>
          <path id="Tracé_27" data-name="Tracé 27" d="M52.1,7.871,14.273,3.576a5.2,5.2,0,0,0-4.087,1.178,5.265,5.265,0,0,0-2.009,3.6l-.693,5.681H5.336A5.567,5.567,0,0,0,0,19.786V48.12a5.265,5.265,0,0,0,5.124,5.4q.105,0,.21,0H43.369a5.687,5.687,0,0,0,5.819-5.4V47.012A6.927,6.927,0,0,0,51.82,45.9a5.75,5.75,0,0,0,2.009-3.741l3.187-28.126A5.611,5.611,0,0,0,52.1,7.871ZM46.417,48.12a2.917,2.917,0,0,1-3.048,2.632H5.336a2.494,2.494,0,0,1-2.566-2.42q0-.106,0-.213V42.994l10.738-7.9a3.325,3.325,0,0,1,4.3.208l7.551,6.65a6.512,6.512,0,0,0,4.087,1.524,6.3,6.3,0,0,0,3.325-.9l13.647-7.9V48.12Zm0-16.7-15.1,8.8a3.533,3.533,0,0,1-4.087-.346l-7.62-6.72a6.166,6.166,0,0,0-7.69-.277L2.773,39.53V19.786a2.8,2.8,0,0,1,2.563-2.979H43.369a3.187,3.187,0,0,1,3.048,2.979V31.424Zm7.831-17.762c0,.009,0,.018,0,.028L50.989,41.816a2.355,2.355,0,0,1-.9,1.87c-.277.277-.9.416-.9.554V19.786a5.958,5.958,0,0,0-5.819-5.75H10.255l.623-5.4a3.187,3.187,0,0,1,1.039-1.8A3.187,3.187,0,0,1,14,6.277l37.755,4.364A2.771,2.771,0,0,1,54.248,13.662Z"/>
        </g>
      </g>
    </g>
  </g>
</svg>
