<svg xmlns="http://www.w3.org/2000/svg" width="27.684" height="27.678" viewBox="0 0 27.684 27.678">
  <path id="Icon_awesome-instagram" data-name="Icon awesome-instagram" d="M13.84,8.98a7.1,7.1,0,1,0,7.1,7.1A7.085,7.085,0,0,0,13.84,8.98Zm0,11.71a4.614,4.614,0,1,1,4.614-4.614A4.622,4.622,0,0,1,13.84,20.69Zm9.042-12a1.655,1.655,0,1,1-1.655-1.655A1.651,1.651,0,0,1,22.882,8.69Zm4.7,1.68a8.191,8.191,0,0,0-2.236-5.8,8.245,8.245,0,0,0-5.8-2.236c-2.285-.13-9.134-.13-11.42,0a8.233,8.233,0,0,0-5.8,2.23,8.218,8.218,0,0,0-2.236,5.8c-.13,2.285-.13,9.134,0,11.42a8.191,8.191,0,0,0,2.236,5.8,8.256,8.256,0,0,0,5.8,2.236c2.285.13,9.134.13,11.42,0a8.191,8.191,0,0,0,5.8-2.236,8.245,8.245,0,0,0,2.236-5.8c.13-2.285.13-9.128,0-11.413ZM24.63,24.235A4.671,4.671,0,0,1,22,26.866c-1.822.723-6.145.556-8.159.556s-6.343.161-8.159-.556A4.671,4.671,0,0,1,3.05,24.235c-.723-1.822-.556-6.145-.556-8.159s-.161-6.343.556-8.159A4.671,4.671,0,0,1,5.681,5.287c1.822-.723,6.145-.556,8.159-.556s6.343-.161,8.159.556A4.671,4.671,0,0,1,24.63,7.918c.723,1.822.556,6.145.556,8.159S25.352,22.42,24.63,24.235Z" transform="translate(0.005 -2.238)"/>
</svg>
